<?xml version="1.0" encoding="utf-8"?>
<!DOCTYPE svg PUBLIC "-//W3C//DTD SVG 1.1//EN" "http://www.w3.org/Graphics/SVG/1.1/DTD/svg11.dtd">
<svg xmlns="http://www.w3.org/2000/svg" id="Tartan-In-SVG" x="0" y="0" width="200" height="200" version="1.1" viewbox="0 0 200 200">
<style>

svg {
    zoom: 10;
    background-color: pink;
}
.c0 {
fill: none;
stroke: #d2691e;
stroke-dasharray: 4, 4;
stroke-width: 2;
}

.c1 {
fill: none;
stroke: #336699;
stroke-dasharray: 4, 4;
stroke-width: 2;
}

.c2 {
fill: none;
stroke: #330066;
stroke-dasharray: 4, 4;
stroke-width: 2;
}

.c3 {
fill: none;
stroke: #cccccc;
stroke-dasharray: 4, 4;
stroke-width: 2;
}

.c4 {
fill: none;
stroke: #262626;
stroke-dasharray: 4, 4;
stroke-width: 2;
}

.c5 {
fill: none;
stroke: black;
stroke-dasharray: 4, 4;
stroke-width: 2;
}

#horizontal-rows {
    opacity: 1;
}
#vertical-cols {
    opacity: 0;
}
</style>

<g id="horizontal-rows" x="0" y="0">

<line class="c0" x1="0" y1="1" x2="652" y2="1" /><line class="c0" x1="6" y1="3" x2="652" y2="3" /><line class="c0" x1="4" y1="5" x2="652" y2="5" /><line class="c0" x1="2" y1="7" x2="652" y2="7" /><line class="c0" x1="0" y1="9" x2="652" y2="9" /><line class="c0" x1="6" y1="11" x2="652" y2="11" /><line class="c1" x1="4" y1="13" x2="652" y2="13" /><line class="c1" x1="2" y1="15" x2="652" y2="15" /><line class="c1" x1="0" y1="17" x2="652" y2="17" /><line class="c1" x1="6" y1="19" x2="652" y2="19" /><line class="c2" x1="4" y1="21" x2="652" y2="21" /><line class="c2" x1="2" y1="23" x2="652" y2="23" /><line class="c2" x1="0" y1="25" x2="652" y2="25" /><line class="c2" x1="6" y1="27" x2="652" y2="27" /><line class="c2" x1="4" y1="29" x2="652" y2="29" /><line class="c2" x1="2" y1="31" x2="652" y2="31" /><line class="c2" x1="0" y1="33" x2="652" y2="33" /><line class="c2" x1="6" y1="35" x2="652" y2="35" /><line class="c2" x1="4" y1="37" x2="652" y2="37" /><line class="c2" x1="2" y1="39" x2="652" y2="39" /><line class="c2" x1="0" y1="41" x2="652" y2="41" /><line class="c2" x1="6" y1="43" x2="652" y2="43" /><line class="c2" x1="4" y1="45" x2="652" y2="45" /><line class="c2" x1="2" y1="47" x2="652" y2="47" /><line class="c2" x1="0" y1="49" x2="652" y2="49" /><line class="c2" x1="6" y1="51" x2="652" y2="51" /><line class="c2" x1="4" y1="53" x2="652" y2="53" /><line class="c2" x1="2" y1="55" x2="652" y2="55" /><line class="c2" x1="0" y1="57" x2="652" y2="57" /><line class="c2" x1="6" y1="59" x2="652" y2="59" /><line class="c2" x1="4" y1="61" x2="652" y2="61" /><line class="c2" x1="2" y1="63" x2="652" y2="63" /><line class="c2" x1="0" y1="65" x2="652" y2="65" /><line class="c2" x1="6" y1="67" x2="652" y2="67" /><line class="c2" x1="4" y1="69" x2="652" y2="69" /><line class="c2" x1="2" y1="71" x2="652" y2="71" /><line class="c2" x1="0" y1="73" x2="652" y2="73" /><line class="c2" x1="6" y1="75" x2="652" y2="75" /><line class="c2" x1="4" y1="77" x2="652" y2="77" /><line class="c2" x1="2" y1="79" x2="652" y2="79" /><line class="c2" x1="0" y1="81" x2="652" y2="81" /><line class="c2" x1="6" y1="83" x2="652" y2="83" /><line class="c2" x1="4" y1="85" x2="652" y2="85" /><line class="c2" x1="2" y1="87" x2="652" y2="87" /><line class="c2" x1="0" y1="89" x2="652" y2="89" /><line class="c2" x1="6" y1="91" x2="652" y2="91" /><line class="c2" x1="4" y1="93" x2="652" y2="93" /><line class="c2" x1="2" y1="95" x2="652" y2="95" /><line class="c2" x1="0" y1="97" x2="652" y2="97" /><line class="c2" x1="6" y1="99" x2="652" y2="99" /><line class="c2" x1="4" y1="101" x2="652" y2="101" /><line class="c2" x1="2" y1="103" x2="652" y2="103" /><line class="c2" x1="0" y1="105" x2="652" y2="105" /><line class="c2" x1="6" y1="107" x2="652" y2="107" /><line class="c3" x1="4" y1="109" x2="652" y2="109" /><line class="c3" x1="2" y1="111" x2="652" y2="111" /><line class="c3" x1="0" y1="113" x2="652" y2="113" /><line class="c3" x1="6" y1="115" x2="652" y2="115" /><line class="c3" x1="4" y1="117" x2="652" y2="117" /><line class="c3" x1="2" y1="119" x2="652" y2="119" /><line class="c4" x1="0" y1="121" x2="652" y2="121" /><line class="c4" x1="6" y1="123" x2="652" y2="123" /><line class="c4" x1="4" y1="125" x2="652" y2="125" /><line class="c4" x1="2" y1="127" x2="652" y2="127" /><line class="c4" x1="0" y1="129" x2="652" y2="129" /><line class="c4" x1="6" y1="131" x2="652" y2="131" /><line class="c4" x1="4" y1="133" x2="652" y2="133" /><line class="c4" x1="2" y1="135" x2="652" y2="135" /><line class="c4" x1="0" y1="137" x2="652" y2="137" /><line class="c4" x1="6" y1="139" x2="652" y2="139" /><line class="c4" x1="4" y1="141" x2="652" y2="141" /><line class="c4" x1="2" y1="143" x2="652" y2="143" /><line class="c4" x1="0" y1="145" x2="652" y2="145" /><line class="c4" x1="6" y1="147" x2="652" y2="147" /><line class="c4" x1="4" y1="149" x2="652" y2="149" /><line class="c4" x1="2" y1="151" x2="652" y2="151" /><line class="c4" x1="0" y1="153" x2="652" y2="153" /><line class="c4" x1="6" y1="155" x2="652" y2="155" /><line class="c4" x1="4" y1="157" x2="652" y2="157" /><line class="c4" x1="2" y1="159" x2="652" y2="159" /><line class="c4" x1="0" y1="161" x2="652" y2="161" /><line class="c4" x1="6" y1="163" x2="652" y2="163" /><line class="c4" x1="4" y1="165" x2="652" y2="165" /><line class="c4" x1="2" y1="167" x2="652" y2="167" /><line class="c4" x1="0" y1="169" x2="652" y2="169" /><line class="c4" x1="6" y1="171" x2="652" y2="171" /><line class="c4" x1="4" y1="173" x2="652" y2="173" /><line class="c4" x1="2" y1="175" x2="652" y2="175" /><line class="c4" x1="0" y1="177" x2="652" y2="177" /><line class="c4" x1="6" y1="179" x2="652" y2="179" /><line class="c4" x1="4" y1="181" x2="652" y2="181" /><line class="c4" x1="2" y1="183" x2="652" y2="183" /><line class="c4" x1="0" y1="185" x2="652" y2="185" /><line class="c4" x1="6" y1="187" x2="652" y2="187" /><line class="c4" x1="4" y1="189" x2="652" y2="189" /><line class="c4" x1="2" y1="191" x2="652" y2="191" /><line class="c3" x1="0" y1="193" x2="652" y2="193" /><line class="c3" x1="6" y1="195" x2="652" y2="195" /><line class="c3" x1="4" y1="197" x2="652" y2="197" /><line class="c3" x1="2" y1="199" x2="652" y2="199" /></g>


<g id="vertical-cols" x="0" y="0" transform="translate(0,1)">


<line class="c0" x1="-1" y1="5" x2="-1" y2="652" /><line class="c0" x1="1" y1="3" x2="1" y2="652" /><line class="c0" x1="3" y1="1" x2="3" y2="652" /><line class="c0" x1="5" y1="-1" x2="5" y2="652" /><line class="c0" x1="7" y1="5" x2="7" y2="652" /><line class="c0" x1="9" y1="3" x2="9" y2="652" /><line class="c1" x1="11" y1="1" x2="11" y2="652" /><line class="c1" x1="13" y1="-1" x2="13" y2="652" /><line class="c1" x1="15" y1="5" x2="15" y2="652" /><line class="c1" x1="17" y1="3" x2="17" y2="652" /><line class="c2" x1="19" y1="1" x2="19" y2="652" /><line class="c2" x1="21" y1="-1" x2="21" y2="652" /><line class="c2" x1="23" y1="5" x2="23" y2="652" /><line class="c2" x1="25" y1="3" x2="25" y2="652" /><line class="c2" x1="27" y1="1" x2="27" y2="652" /><line class="c2" x1="29" y1="-1" x2="29" y2="652" /><line class="c2" x1="31" y1="5" x2="31" y2="652" /><line class="c2" x1="33" y1="3" x2="33" y2="652" /><line class="c2" x1="35" y1="1" x2="35" y2="652" /><line class="c2" x1="37" y1="-1" x2="37" y2="652" /><line class="c2" x1="39" y1="5" x2="39" y2="652" /><line class="c2" x1="41" y1="3" x2="41" y2="652" /><line class="c2" x1="43" y1="1" x2="43" y2="652" /><line class="c2" x1="45" y1="-1" x2="45" y2="652" /><line class="c2" x1="47" y1="5" x2="47" y2="652" /><line class="c2" x1="49" y1="3" x2="49" y2="652" /><line class="c2" x1="51" y1="1" x2="51" y2="652" /><line class="c2" x1="53" y1="-1" x2="53" y2="652" /><line class="c2" x1="55" y1="5" x2="55" y2="652" /><line class="c2" x1="57" y1="3" x2="57" y2="652" /><line class="c2" x1="59" y1="1" x2="59" y2="652" /><line class="c2" x1="61" y1="-1" x2="61" y2="652" /><line class="c2" x1="63" y1="5" x2="63" y2="652" /><line class="c2" x1="65" y1="3" x2="65" y2="652" /><line class="c2" x1="67" y1="1" x2="67" y2="652" /><line class="c2" x1="69" y1="-1" x2="69" y2="652" /><line class="c2" x1="71" y1="5" x2="71" y2="652" /><line class="c2" x1="73" y1="3" x2="73" y2="652" /><line class="c2" x1="75" y1="1" x2="75" y2="652" /><line class="c2" x1="77" y1="-1" x2="77" y2="652" /><line class="c2" x1="79" y1="5" x2="79" y2="652" /><line class="c2" x1="81" y1="3" x2="81" y2="652" /><line class="c2" x1="83" y1="1" x2="83" y2="652" /><line class="c2" x1="85" y1="-1" x2="85" y2="652" /><line class="c2" x1="87" y1="5" x2="87" y2="652" /><line class="c2" x1="89" y1="3" x2="89" y2="652" /><line class="c2" x1="91" y1="1" x2="91" y2="652" /><line class="c2" x1="93" y1="-1" x2="93" y2="652" /><line class="c2" x1="95" y1="5" x2="95" y2="652" /><line class="c2" x1="97" y1="3" x2="97" y2="652" /><line class="c2" x1="99" y1="1" x2="99" y2="652" /><line class="c2" x1="101" y1="-1" x2="101" y2="652" /><line class="c2" x1="103" y1="5" x2="103" y2="652" /><line class="c2" x1="105" y1="3" x2="105" y2="652" /><line class="c3" x1="107" y1="1" x2="107" y2="652" /><line class="c3" x1="109" y1="-1" x2="109" y2="652" /><line class="c3" x1="111" y1="5" x2="111" y2="652" /><line class="c3" x1="113" y1="3" x2="113" y2="652" /><line class="c3" x1="115" y1="1" x2="115" y2="652" /><line class="c3" x1="117" y1="-1" x2="117" y2="652" /><line class="c4" x1="119" y1="5" x2="119" y2="652" /><line class="c4" x1="121" y1="3" x2="121" y2="652" /><line class="c4" x1="123" y1="1" x2="123" y2="652" /><line class="c4" x1="125" y1="-1" x2="125" y2="652" /><line class="c4" x1="127" y1="5" x2="127" y2="652" /><line class="c4" x1="129" y1="3" x2="129" y2="652" /><line class="c4" x1="131" y1="1" x2="131" y2="652" /><line class="c4" x1="133" y1="-1" x2="133" y2="652" /><line class="c4" x1="135" y1="5" x2="135" y2="652" /><line class="c4" x1="137" y1="3" x2="137" y2="652" /><line class="c4" x1="139" y1="1" x2="139" y2="652" /><line class="c4" x1="141" y1="-1" x2="141" y2="652" /><line class="c4" x1="143" y1="5" x2="143" y2="652" /><line class="c4" x1="145" y1="3" x2="145" y2="652" /><line class="c4" x1="147" y1="1" x2="147" y2="652" /><line class="c4" x1="149" y1="-1" x2="149" y2="652" /><line class="c4" x1="151" y1="5" x2="151" y2="652" /><line class="c4" x1="153" y1="3" x2="153" y2="652" /><line class="c4" x1="155" y1="1" x2="155" y2="652" /><line class="c4" x1="157" y1="-1" x2="157" y2="652" /><line class="c4" x1="159" y1="5" x2="159" y2="652" /><line class="c4" x1="161" y1="3" x2="161" y2="652" /><line class="c4" x1="163" y1="1" x2="163" y2="652" /><line class="c4" x1="165" y1="-1" x2="165" y2="652" /><line class="c4" x1="167" y1="5" x2="167" y2="652" /><line class="c4" x1="169" y1="3" x2="169" y2="652" /><line class="c4" x1="171" y1="1" x2="171" y2="652" /><line class="c4" x1="173" y1="-1" x2="173" y2="652" /><line class="c4" x1="175" y1="5" x2="175" y2="652" /><line class="c4" x1="177" y1="3" x2="177" y2="652" /><line class="c4" x1="179" y1="1" x2="179" y2="652" /><line class="c4" x1="181" y1="-1" x2="181" y2="652" /><line class="c4" x1="183" y1="5" x2="183" y2="652" /><line class="c4" x1="185" y1="3" x2="185" y2="652" /><line class="c4" x1="187" y1="1" x2="187" y2="652" /><line class="c4" x1="189" y1="-1" x2="189" y2="652" /><line class="c3" x1="191" y1="5" x2="191" y2="652" /><line class="c3" x1="193" y1="3" x2="193" y2="652" /><line class="c3" x1="195" y1="1" x2="195" y2="652" /><line class="c3" x1="197" y1="-1" x2="197" y2="652" /></g></svg>