<?xml version="1.0" encoding="utf-8"?>
<!DOCTYPE svg PUBLIC "-//W3C//DTD SVG 1.1//EN" "http://www.w3.org/Graphics/SVG/1.1/DTD/svg11.dtd">
<svg 
    id="mysvg"
    xmlns:svg="http://www.w3.org/2000/svg"
    xmlns="http://www.w3.org/2000/svg"
    xmlns:xlink="http://www.w3.org/1999/xlink"
    version="1.0"
    x="0"
    y="0"
    width="365"
    height="545"
    viewBox="0 0 365 545"
    >
<defs>
<style>
</style>
</defs>
<g xmlns="http://www.w3.org/2000/svg" transform="translate(2370,-482.36)" id="g544">
<rect 
    width="359" height="539" rx="29.944" x="0.5" y="512.85999" 
    id="rect546" style="fill:#ffffff;stroke:#000000"/>
    <g id="g548" style="fill:#ff5555">
      <path d="m 30,609.86 c 0,0 0.682,-4.182 2,-5.5 1.318,-1.318 3.637,-2 5.5,-2 1.863,0 4.182,0.682 5.5,2 1.318,1.318 2,3.637 2,5.5 0,1.863 -1,4.5 -2,5.5 -1,1 -2,1.5 -3,2.5 -1,1 -1.5,1 -2.5,2 -1,1 -1.5,1.5 -2.5,2.5 -1,1 -2.5,3 -3.5,5 -1,2 -1.5,5 -1.5,5 0,0 -0.5,-3 -1.5,-5 -1,-2 -2.5,-4 -3.5,-5 -1,-1 -1.5,-1.5 -2.5,-2.5 -1,-1 -1.5,-1 -2.5,-2 -1,-1 -2,-1.5 -3,-2.5 -1,-1 -2,-3.637 -2,-5.5 0,-1.863 0.682,-4.182 2,-5.5 1.318,-1.318 3.637,-2 5.5,-2 1.863,0 4.182,0.682 5.5,2 1.318,1.318 2,5.5 2,5.5" id="path550"/>
      <path d="m 330,954.86 c 0,0 0.682,4.182 2,5.5 1.318,1.318 3.637,2 5.5,2 1.863,0 4.182,-0.682 5.5,-2 1.318,-1.318 2,-3.637 2,-5.5 0,-1.863 -1,-4.5 -2,-5.5 -1,-1 -2,-1.5 -3,-2.5 -1,-1 -1.5,-1 -2.5,-2 -1,-1 -1.5,-1.5 -2.5,-2.5 -1,-1 -2.5,-3 -3.5,-5 -1,-2 -1.5,-5 -1.5,-5 0,0 -0.5,3 -1.5,5 -1,2 -2.5,4 -3.5,5 -1,1 -1.5,1.5 -2.5,2.5 -1,1 -1.5,1 -2.5,2 -1,1 -2,1.5 -3,2.5 -1,1 -2,3.637 -2,5.5 0,1.863 0.682,4.182 2,5.5 1.318,1.318 3.637,2 5.5,2 1.863,0 4.182,-0.682 5.5,-2 1.318,-1.318 2,-5.5 2,-5.5" id="path552"/>
      <path d="m 100,582.36 c 0,0 1.82,-11.153 5.333,-14.667 3.514,-3.514 9.698,-5.333 14.667,-5.333 4.969,0 11.153,1.82 14.667,5.333 3.514,3.514 5.333,9.698 5.333,14.667 0,4.969 -2.667,12 -5.333,14.667 -2.667,2.667 -5.333,4 -8,6.667 -2.667,2.667 -4,2.667 -6.667,5.333 -2.667,2.667 -4,4 -6.667,6.667 -2.667,2.667 -6.667,8 -9.333,13.333 -2.667,5.333 -4,13.333 -4,13.333 0,0 -1.333,-8 -4,-13.333 -2.667,-5.333 -6.667,-10.667 -9.333,-13.333 -2.667,-2.667 -4,-4 -6.667,-6.667 -2.667,-2.667 -4,-2.667 -6.667,-5.333 -2.667,-2.667 -5.333,-4 -8,-6.667 C 62.666,594.36 60,587.329 60,582.36 c 0,-4.969 1.82,-11.153 5.333,-14.667 3.514,-3.514 9.698,-5.333 14.667,-5.333 4.969,0 11.153,1.82 14.667,5.333 3.514,3.514 5.333,14.667 5.333,14.667" id="path554"/>
      <path d="m 100,982.36 c 0,0 1.82,11.153 5.333,14.667 3.514,3.514 9.698,5.333 14.667,5.333 4.969,0 11.153,-1.82 14.667,-5.333 3.514,-3.514 5.333,-9.698 5.333,-14.667 0,-4.969 -2.667,-12 -5.333,-14.667 -2.667,-2.667 -5.333,-4 -8,-6.667 -2.667,-2.667 -4,-2.667 -6.667,-5.333 -2.667,-2.667 -4,-4 -6.667,-6.667 -2.667,-2.667 -6.667,-8 -9.333,-13.333 -2.667,-5.333 -4,-13.333 -4,-13.333 0,0 -1.333,8 -4,13.333 -2.667,5.333 -6.667,10.667 -9.333,13.333 -2.667,2.667 -4,4 -6.667,6.667 -2.667,2.667 -4,2.667 -6.667,5.333 -2.667,2.667 -5.333,4 -8,6.667 C 62.666,970.36 60,977.391 60,982.36 c 0,4.969 1.82,11.153 5.333,14.667 3.514,3.514 9.698,5.333 14.667,5.333 4.969,0 11.153,-1.82 14.667,-5.333 C 98.181,993.513 100,982.36 100,982.36" id="path556"/>
      <path d="m 260,982.36 c 0,0 1.82,11.153 5.333,14.667 3.514,3.514 9.698,5.333 14.667,5.333 4.969,0 11.153,-1.82 14.667,-5.333 3.514,-3.514 5.333,-9.698 5.333,-14.667 0,-4.969 -2.667,-12 -5.333,-14.667 -2.667,-2.667 -5.333,-4 -8,-6.667 -2.667,-2.667 -4,-2.667 -6.667,-5.333 -2.667,-2.667 -4,-4 -6.667,-6.667 -2.667,-2.667 -6.667,-8 -9.333,-13.333 -2.667,-5.333 -4,-13.333 -4,-13.333 0,0 -1.333,8 -4,13.333 -2.667,5.333 -6.667,10.667 -9.333,13.333 -2.667,2.667 -4,4 -6.667,6.667 -2.667,2.667 -4,2.667 -6.667,5.333 -2.667,2.667 -5.333,4 -8,6.667 -2.667,2.667 -5.333,9.698 -5.333,14.667 0,4.969 1.82,11.153 5.333,14.667 3.514,3.514 9.698,5.333 14.667,5.333 4.969,0 11.153,-1.82 14.667,-5.333 C 258.181,993.513 260,982.36 260,982.36" id="path558"/>
      <path d="m 260,582.36 c 0,0 1.82,-11.153 5.333,-14.667 3.514,-3.514 9.698,-5.333 14.667,-5.333 4.969,0 11.153,1.82 14.667,5.333 3.514,3.514 5.333,9.698 5.333,14.667 0,4.969 -2.667,12 -5.333,14.667 -2.667,2.667 -5.333,4 -8,6.667 -2.667,2.667 -4,2.667 -6.667,5.333 -2.667,2.667 -4,4 -6.667,6.667 -2.667,2.667 -6.667,8 -9.333,13.333 -2.667,5.333 -4,13.333 -4,13.333 0,0 -1.333,-8 -4,-13.333 -2.667,-5.333 -6.667,-10.667 -9.333,-13.333 -2.667,-2.667 -4,-4 -6.667,-6.667 -2.667,-2.667 -4,-2.667 -6.667,-5.333 -2.667,-2.667 -5.333,-4 -8,-6.667 C 222.666,594.36 220,587.329 220,582.36 c 0,-4.969 1.82,-11.153 5.333,-14.667 3.514,-3.514 9.698,-5.333 14.667,-5.333 4.969,0 11.153,1.82 14.667,5.333 3.514,3.514 5.333,14.667 5.333,14.667" id="path560"/>
      <path d="m 260,762.36 c 0,0 1.82,-11.153 5.333,-14.667 3.514,-3.514 9.698,-5.333 14.667,-5.333 4.969,0 11.153,1.82 14.667,5.333 3.514,3.514 5.333,9.698 5.333,14.667 0,4.969 -2.667,12 -5.333,14.667 -2.667,2.667 -5.333,4 -8,6.667 -2.667,2.667 -4,2.667 -6.667,5.333 -2.667,2.667 -4,4 -6.667,6.667 -2.667,2.667 -6.667,8 -9.333,13.333 -2.667,5.333 -4,13.333 -4,13.333 0,0 -1.333,-8 -4,-13.333 -2.667,-5.333 -6.667,-10.667 -9.333,-13.333 -2.667,-2.667 -4,-4 -6.667,-6.667 -2.667,-2.667 -4,-2.667 -6.667,-5.333 -2.667,-2.667 -5.333,-4 -8,-6.667 C 222.666,774.36 220,767.329 220,762.36 c 0,-4.969 1.82,-11.153 5.333,-14.667 3.514,-3.514 9.698,-5.333 14.667,-5.333 4.969,0 11.153,1.82 14.667,5.333 3.514,3.514 5.333,14.667 5.333,14.667" id="path562"/>
      <path d="m 100,762.36 c 0,0 1.82,-11.153 5.333,-14.667 3.514,-3.514 9.698,-5.333 14.667,-5.333 4.969,0 11.153,1.82 14.667,5.333 3.514,3.514 5.333,9.698 5.333,14.667 0,4.969 -2.667,12 -5.333,14.667 -2.667,2.667 -5.333,4 -8,6.667 -2.667,2.667 -4,2.667 -6.667,5.333 -2.667,2.667 -4,4 -6.667,6.667 -2.667,2.667 -6.667,8 -9.333,13.333 -2.667,5.333 -4,13.333 -4,13.333 0,0 -1.333,-8 -4,-13.333 -2.667,-5.333 -6.667,-10.667 -9.333,-13.333 -2.667,-2.667 -4,-4 -6.667,-6.667 -2.667,-2.667 -4,-2.667 -6.667,-5.333 -2.667,-2.667 -5.333,-4 -8,-6.667 C 62.666,774.36 60,767.329 60,762.36 c 0,-4.969 1.82,-11.153 5.333,-14.667 3.514,-3.514 9.698,-5.333 14.667,-5.333 4.969,0 11.153,1.82 14.667,5.333 3.514,3.514 5.333,14.667 5.333,14.667" id="path564"/>
      <path d="m 20,542.36 v 5 5 h 5 v -5 h 10 l -10,45 h 5 l 10,-45 v -5 H 20" id="path566"/>
      <path d="m 340,1022.36 v -5 -5 h -5 v 5 h -10 l 10,-45 h -5 l -10,45 v 5 h 20" id="path568"/>
      <path d="m 180,672.36 c 0,0 1.82,-11.153 5.333,-14.667 3.514,-3.514 9.698,-5.333 14.667,-5.333 4.969,0 11.153,1.82 14.667,5.333 3.514,3.514 5.333,9.698 5.333,14.667 0,4.969 -2.667,12 -5.333,14.667 -2.667,2.667 -5.333,4 -8,6.667 -2.667,2.667 -4,2.667 -6.667,5.333 -2.667,2.667 -4,4 -6.667,6.667 -2.667,2.667 -6.667,8 -9.333,13.333 -2.667,5.333 -4,13.333 -4,13.333 0,0 -1.333,-8 -4,-13.333 -2.667,-5.333 -6.667,-10.667 -9.333,-13.333 -2.667,-2.667 -4,-4 -6.667,-6.667 -2.667,-2.667 -4,-2.667 -6.667,-5.333 -2.667,-2.667 -5.333,-4 -8,-6.667 C 142.666,684.36 140,677.329 140,672.36 c 0,-4.969 1.82,-11.153 5.333,-14.667 3.514,-3.514 9.698,-5.333 14.667,-5.333 4.969,0 11.153,1.82 14.667,5.333 3.514,3.514 5.333,14.667 5.333,14.667" id="path570"/>
    </g>
  </g>
</svg>