<?xml version="1.0" encoding="UTF-8"?>
<svg 
  xmlns="http://www.w3.org/2000/svg" 
  width="1024" 
  height="1152">
<defs>
<style>
#taylor-tile {
  fill:#230f38;
  fill-opacity:0.5;
  stroke:#000;
  stroke-width:4;
}
#taylor-stroke {
  fill:none;
  stroke:#00F;
  stroke-width:8
}

#dashed-pos-boundary {
    stroke-width: 1;
    stroke-dasharray: 5 2; 
    stroke: tan;
    fill: none;
}
#dim-past-boundary {
    fill: rgba(255,255,255,.8);
    stroke-width:0;
}
</style>
<g id="taylor-complete">
  <path id="taylor-tile" 
  d="m 40.88218,848 110.85125,-64 27.71281,48 -55.42562,32 -55.425627,-96 -55.425626,32 z 
  m 831.38439,-64 110.85125,64 27.71278,-48 -55.42559,-32 -55.42563,96 -55.42562,-32 z 
  M 456.57437,992 512,992 l 0,128 55.42563,0 0,-64 -110.85126,0 z 
  m 415.6922,-624 110.85125,-64 27.71278,48 -55.42559,32 -55.42563,-96 -55.42562,32 z 
  M 40.88218,304 151.73343,368 179.44624,320 124.02062,288 68.594993,384 13.169367,352 Z 
  m 415.69219,-208 110.85126,0 0,-64 L 512,32 l 0,128 -55.42563,0 z 
  m -27.71281,752 
    -27.71281,48 
     27.71281,16 
     55.42563,-96 
   -138.56407,-80 
    -27.71281,48 
    -83.13844,-48 
      0,-96 
    -55.42563,0 
      0,32 
    110.85126,0 
      0,-160 
    -55.42563,0 
      0,-96 
     83.13844,-48 
     27.71281,48 
    138.56407,-80 
    -55.42563,-96 
    -27.71281,16 
     27.71281,48 
  L 512,256 
  l 83.13844,48 
    27.71281,-48 
   -27.71281,-16 
   -55.42563,96 
   138.56407,80 
    27.71281,-48 
    83.13844,48 
     0,96 
   -55.42563,0 
     0,160 
   110.85126,0 
     0,-32 
   -55.42563,0 
     0,96 
   -83.13844,48 
   -27.71281,-48 
  -138.56407,80 
    55.42563,96 
    27.71281,-16 
  L 595.13844,848 
    512,896 
  Z"/>
  <path id="taylor-stroke" 
  d="m 581.28203,296 27.71282,-48 
  M 470.43078,344 512,416 553.56922,344 
  m -138.56407,-96 27.71282,48 
  m 138.56406,560 27.71282,48 
  M 470.43078,808 512,736 l 41.56922,72 
  m -138.56407,96 27.71282,-48 
  m 346.41016,-200 55.42563,0 
  m -554.25626,0 443.405,0 
  m -554.25626,0 55.42563,0"/>
</g>
</defs>

<g id="euclidian-transform-xy-plane" >
    <path id="dashed-pos-boundary" d="M 0 640 h 640 v -640" />
    <line y1="0" x1="-100%" x2="100%" y2="0" stroke="black" stroke-width="1" />
    <line x1="0" y1="-100%" y2="100%" x2="0" stroke="black" stroke-width="1" />
    
</g>

<use href="#taylor-complete" transform="scale(0.5)" />
</svg>
