<?xml version="1.0" encoding="utf-8"?>
<!-- Generator: Adobe Illustrator 15.1.0, SVG Export Plug-In . SVG Version: 6.00 Build 0)  -->
<!DOCTYPE svg PUBLIC "-//W3C//DTD SVG 1.1//EN" "http://www.w3.org/Graphics/SVG/1.1/DTD/svg11.dtd">
<svg version="1.1" id="Layer_1" xmlns="http://www.w3.org/2000/svg" xmlns:xlink="http://www.w3.org/1999/xlink" x="0px" y="0px"
	 width="100px" height="100px" viewBox="0 0 100 100" enable-background="new 0 0 100 100" xml:space="preserve">
<g>
	<line fill="none" stroke="#231F20" stroke-miterlimit="10" x1="30" y1="30.5" x2="60" y2="30.5"/>
	<line fill="none" stroke="#231F20" stroke-miterlimit="10" x1="29" y1="82.5" x2="59" y2="82.5"/>
	<line fill="none" stroke="#231F20" stroke-miterlimit="10" x1="59.5" y1="30.51" x2="74.5" y2="56.49"/>
	<line fill="none" stroke="#231F20" stroke-miterlimit="10" x1="14.5" y1="56.51" x2="29.5" y2="82.49"/>
	<line fill="none" stroke="#231F20" stroke-miterlimit="10" x1="29.5" y1="30.51" x2="14.5" y2="56.49"/>
	<line fill="none" stroke="#231F20" stroke-miterlimit="10" x1="74.5" y1="56.51" x2="59.5" y2="82.49"/>
	<line fill="none" stroke="#231F20" stroke-miterlimit="10" x1="30" y1="30.5" x2="60" y2="83"/>
	<line fill="none" stroke="#231F20" stroke-miterlimit="10" x1="60" y1="30.5" x2="30" y2="83"/>
	<line fill="none" stroke="#231F20" stroke-miterlimit="10" x1="15" y1="56.5" x2="75" y2="56.5"/>
</g>
<g>
	<line fill="none" stroke="#231F20" stroke-miterlimit="10" x1="75" y1="56.5" x2="105" y2="56.5"/>
	<line fill="none" stroke="#231F20" stroke-miterlimit="10" x1="74" y1="108.5" x2="104" y2="108.5"/>
	<line fill="none" stroke="#231F20" stroke-miterlimit="10" x1="104.5" y1="56.51" x2="119.5" y2="82.49"/>
	<line fill="none" stroke="#231F20" stroke-miterlimit="10" x1="59.5" y1="82.51" x2="74.5" y2="108.49"/>
	<line fill="none" stroke="#231F20" stroke-miterlimit="10" x1="74.5" y1="56.51" x2="59.5" y2="82.49"/>
	<line fill="none" stroke="#231F20" stroke-miterlimit="10" x1="119.5" y1="82.51" x2="104.5" y2="108.49"/>
	<line fill="none" stroke="#231F20" stroke-miterlimit="10" x1="75" y1="56.5" x2="105" y2="109"/>
	<line fill="none" stroke="#231F20" stroke-miterlimit="10" x1="105" y1="56.5" x2="75" y2="109"/>
	<line fill="none" stroke="#231F20" stroke-miterlimit="10" x1="60" y1="82.5" x2="120" y2="82.5"/>
</g>
<g>
	<line fill="none" stroke="#231F20" stroke-miterlimit="10" x1="29" y1="82.5" x2="59" y2="82.5"/>
	<line fill="none" stroke="#231F20" stroke-miterlimit="10" x1="28" y1="134.5" x2="58" y2="134.5"/>
	<line fill="none" stroke="#231F20" stroke-miterlimit="10" x1="58.5" y1="82.51" x2="73.5" y2="108.49"/>
	<line fill="none" stroke="#231F20" stroke-miterlimit="10" x1="13.5" y1="108.51" x2="28.5" y2="134.49"/>
	<line fill="none" stroke="#231F20" stroke-miterlimit="10" x1="28.5" y1="82.51" x2="13.5" y2="108.49"/>
	<line fill="none" stroke="#231F20" stroke-miterlimit="10" x1="73.5" y1="108.51" x2="58.5" y2="134.49"/>
	<line fill="none" stroke="#231F20" stroke-miterlimit="10" x1="29" y1="82.5" x2="59" y2="135"/>
	<line fill="none" stroke="#231F20" stroke-miterlimit="10" x1="59" y1="82.5" x2="29" y2="135"/>
	<line fill="none" stroke="#231F20" stroke-miterlimit="10" x1="14" y1="108.5" x2="74" y2="108.5"/>
</g>
</svg>
