<?xml version="1.0" encoding="utf-8"?>
<!-- Generator: Adobe Illustrator 15.1.0, SVG Export Plug-In . SVG Version: 6.00 Build 0)  -->
<!DOCTYPE svg PUBLIC "-//W3C//DTD SVG 1.1//EN" "http://www.w3.org/Graphics/SVG/1.1/DTD/svg11.dtd">
<svg version="1.1" id="svgBox1" xmlns="http://www.w3.org/2000/svg" xmlns:xlink="http://www.w3.org/1999/xlink" x="0px" y="0px"
	 width="612px" height="792px" viewBox="0 0 612 792" enable-background="new 0 0 612 792" xml:space="preserve">
<g>
	<path fill="none" d="z"/>
	<ellipse fill="#0000FF" cx="0" cy="0" rx="0" ry="23"/>
	<path id="circle12" fill="#0000FF" d="M978,416"/>
</g>
<g>
	<path fill="none" d="z"/>
	<ellipse fill="#0000FF" cx="0" cy="0" rx="0" ry="55"/>
	<path id="circle12_1_" opacity="0.1786" fill="#0000FF" enable-background="new    " d="M107,656"/>
</g>
<g>
	<path fill="none" d="z"/>
	<ellipse fill="#0000FF" cx="0" cy="0" rx="42.284" ry="42"/>
	<path id="circle12_2_" opacity="0.7115" fill="#0000FF" enable-background="new    " d="M70,606"/>
</g>
<g>
	<path fill="none" d="z"/>
	<ellipse fill="#0000FF" cx="0" cy="0" rx="50.974" ry="51"/>
	<path id="circle12_3_" opacity="0.6995" fill="#0000FF" enable-background="new    " d="M131,515"/>
</g>
<g>
	<path fill="none" d="z"/>
	<ellipse fill="#0000FF" cx="0" cy="0" rx="0" ry="29"/>
	<path id="circle12_4_" opacity="0.0373" fill="#0000FF" enable-background="new    " d="M592,710"/>
</g>
<g>
	<path fill="none" d="z"/>
	<ellipse fill="#0000FF" cx="0" cy="0" rx="0" ry="56"/>
	<path id="circle12_5_" opacity="0.0901" fill="#0000FF" enable-background="new    " d="M784,449"/>
</g>
<g>
	<path fill="none" d="z"/>
	<ellipse fill="#0000FF" cx="0" cy="0" rx="43.974" ry="44"/>
	<path id="circle12_6_" opacity="0.222" fill="#0000FF" enable-background="new    " d="M609,381"/>
</g>
<g>
	<path fill="none" d="z"/>
	<ellipse fill="#0000FF" cx="155.214" cy="168" rx="44.428" ry="44"/>
	<path id="circle12_7_" opacity="0.218" fill="#0000FF" enable-background="new    " d="M1107.214,1000"/>
</g>
<g>
	<path fill="none" d="z"/>
	<ellipse fill="#0000FF" cx="0" cy="0" rx="15.202" ry="15"/>
	<path id="circle12_8_" opacity="0.3856" fill="#0000FF" enable-background="new    " d="M618,366"/>
</g>
<g>
	<path fill="none" d="z"/>
	<ellipse fill="#0000FF" cx="118.694" cy="61.84" rx="34.388" ry="34"/>
	<path id="circle12_9_" opacity="0.139" fill="#0000FF" enable-background="new    " d="M893.693,413.84"/>
</g>
<g>
	<path fill="none" d="z"/>
	<ellipse fill="#0000FF" cx="0" cy="0" rx="0" ry="20"/>
	<path id="circle12_10_" opacity="0.2627" fill="#0000FF" enable-background="new    " d="M449,653"/>
</g>
<g>
	<path fill="none" d="z"/>
	<ellipse fill="#0000FF" cx="0" cy="0" rx="0" ry="36"/>
	<path id="circle12_11_" opacity="0.9229" fill="#0000FF" enable-background="new    " d="M171,354"/>
</g>
<g transform="translate(0)">
	<g transform="translate(0 474)">
		<line fill="none" x1="0" y1="0" x2="-6" y2="0"/>
		<text transform="matrix(1 0 0 1 -15.6738 3.8398)" font-family="'ArialMT'" font-size="12">0</text>
	</g>
	<g transform="translate(0 424)">
		<line fill="none" x1="0" y1="0" x2="-6" y2="0"/>
		<text transform="matrix(1 0 0 1 -22.3477 3.8398)" font-family="'ArialMT'" font-size="12">50</text>
	</g>
	<g transform="translate(0 374)">
		<line fill="none" x1="0" y1="0" x2="-6" y2="0"/>
		<text transform="matrix(1 0 0 1 -29.0215 3.8398)" font-family="'ArialMT'" font-size="12">100</text>
	</g>
	<g transform="translate(0 324)">
		<line fill="none" x1="0" y1="0" x2="-6" y2="0"/>
		<text transform="matrix(1 0 0 1 -29.0215 3.8398)" font-family="'ArialMT'" font-size="12">150</text>
	</g>
	<g transform="translate(0 274)">
		<line fill="none" x1="0" y1="0" x2="-6" y2="0"/>
		<text transform="matrix(1 0 0 1 -29.0215 3.8398)" font-family="'ArialMT'" font-size="12">200</text>
	</g>
	<g transform="translate(0 224)">
		<line fill="none" x1="0" y1="0" x2="-6" y2="0"/>
		<text transform="matrix(1 0 0 1 -29.0215 3.8398)" font-family="'ArialMT'" font-size="12">250</text>
	</g>
	<g transform="translate(0 174)">
		<line fill="none" x1="0" y1="0" x2="-6" y2="0"/>
		<text transform="matrix(1 0 0 1 -29.0215 3.8398)" font-family="'ArialMT'" font-size="12">300</text>
	</g>
	<g transform="translate(0 124)">
		<line fill="none" x1="0" y1="0" x2="-6" y2="0"/>
		<text transform="matrix(1 0 0 1 -29.0215 3.8398)" font-family="'ArialMT'" font-size="12">350</text>
	</g>
	<g transform="translate(0 74)">
		<line fill="none" x1="0" y1="0" x2="-6" y2="0"/>
		<text transform="matrix(1 0 0 1 -29.0215 3.8398)" font-family="'ArialMT'" font-size="12">400</text>
	</g>
	<g transform="translate(0 24)">
		<line fill="none" x1="0" y1="0" x2="-6" y2="0"/>
		<text transform="matrix(1 0 0 1 -29.0215 3.8398)" font-family="'ArialMT'" font-size="12">450</text>
	</g>
	<path d="M-6,0h6v474h-6"/>
</g>
<g transform="translate(0 474)">
	<g transform="translate(0)">
		<line fill="none" x1="0" y1="0" x2="0" y2="6"/>
		<text transform="matrix(1 0 0 1 -3.3369 17.5195)" font-family="'ArialMT'" font-size="12">0</text>
	</g>
	<g transform="translate(100)">
		<line fill="none" x1="0" y1="0" x2="0" y2="6"/>
		<text transform="matrix(1 0 0 1 -10.0107 17.5195)" font-family="'ArialMT'" font-size="12">100</text>
	</g>
	<g transform="translate(200)">
		<line fill="none" x1="0" y1="0" x2="0" y2="6"/>
		<text transform="matrix(1 0 0 1 -10.0107 17.5195)" font-family="'ArialMT'" font-size="12">200</text>
	</g>
	<g transform="translate(300)">
		<line fill="none" x1="0" y1="0" x2="0" y2="6"/>
		<text transform="matrix(1 0 0 1 -10.0107 17.5195)" font-family="'ArialMT'" font-size="12">300</text>
	</g>
	<g transform="translate(400)">
		<line fill="none" x1="0" y1="0" x2="0" y2="6"/>
		<text transform="matrix(1 0 0 1 -10.0107 17.5195)" font-family="'ArialMT'" font-size="12">400</text>
	</g>
	<g transform="translate(500)">
		<line fill="none" x1="0" y1="0" x2="0" y2="6"/>
		<text transform="matrix(1 0 0 1 -10.0107 17.5195)" font-family="'ArialMT'" font-size="12">500</text>
	</g>
	<g transform="translate(600)">
		<line fill="none" x1="0" y1="0" x2="0" y2="6"/>
		<text transform="matrix(1 0 0 1 -10.0107 17.5195)" font-family="'ArialMT'" font-size="12">600</text>
	</g>
	<g transform="translate(700)">
		<line fill="none" x1="0" y1="0" x2="0" y2="6"/>
		<text transform="matrix(1 0 0 1 -10.0107 17.5195)" font-family="'ArialMT'" font-size="12">700</text>
	</g>
	<g transform="translate(800)">
		<line fill="none" x1="0" y1="0" x2="0" y2="6"/>
		<text transform="matrix(1 0 0 1 -10.0107 17.5195)" font-family="'ArialMT'" font-size="12">800</text>
	</g>
	<g transform="translate(900)">
		<line fill="none" x1="0" y1="0" x2="0" y2="6"/>
		<text transform="matrix(1 0 0 1 -10.0107 17.5195)" font-family="'ArialMT'" font-size="12">900</text>
	</g>
	<path d="M0,6V0h978v6"/>
</g>
</svg>
