<?xml version="1.0" encoding="utf-8"?>
<!DOCTYPE svg PUBLIC "-//W3C//DTD SVG 1.1//EN" "http://www.w3.org/Graphics/SVG/1.1/DTD/svg11.dtd">
<svg 
    id="svg1"  
    x="14.24" 
    y="3.60" 
    width="605.55" 
    height="260.59" 
    viewport="14.24 3.60 605.55 260.59"
    xmlns:svg="http://www.w3.org/2000/svg" 
    xmlns="http://www.w3.org/2000/svg" 
    xmlns:xlink="http://www.w3.org/1999/xlink" 
    shape-rendering="geometricPrecision" 
    text-rendering="geometricPrecision" 
    image-rendering="optimizeQuality"
    >
<style>
@import url('//fonts.googleapis.com/css?family=Saira Stencil One&amp;display=swap');

#textInput {
    font-family: 'Saira Stencil One';
}
</style>

<defs>

<text id="textInput">Russğ… </text>

<rect id="red-rect" fill="#F00" height="100%" width="100%"/>
<rect id="anti-red-rect" fill="#0FF" height="100%" width="100%"/>
<rect id="white-bg" fill="#FFF" height="100%" width="100%"/>

<rect id="text-bg" fill="#000" height="100%" width="1028.16"/>

<filter id="tik-tok-filter" x="-10%" y="-10%" height="120%" width="120%">
  <feImage id="img-red" xlink:href="#red-rect" result="red-image"/>
  <feComposite in="red-image" operator="in" in2="SourceGraphic" result="r1"/>

  <feOffset in="r1" dx="2" dy="2" result="red-offset"/>
  <feImage id="img-anti-red" xlink:href="#anti-red-rect" result="anti-red-image"/>

  <feComposite in="anti-red-image" operator="in" in2="SourceGraphic" result="r2"/>
  <feOffset in="r2" dx="-2" dy="-2" result="anti-red-offset"/>

  <feComposite in="red-offset" in2="anti-red-offset" operator="xor" result="offset-final"/>

  <feComposite in="red-offset" in2="anti-red-offset" operator="in" result="in-offset"/>
  <feImage id="img-white" xlink:href="#white-bg" result="white-image"/>

  <feComposite in="white-image" in2="in-offset" operator="in" result="white-final"/>

  <feComposite in="offset-final" in2="white-final" operator="over" result="final"/>

</filter>
<path id="tt" d="M20.81 0
   c0.55 4.73 3.19 7.55 7.78 7.85
   v5.32c-2.66 0.26-4.99-0.61-7.70-2.25
   v9.95c0 12.64-13.78 16.59-19.32 7.53-3.56-5.83-1.38-16.06 10.04-16.47
   v5.61c-0.87 0.14-1.80 0.36-2.65 0.65-2.54 0.86-3.98 2.47-3.58 5.31 0.77 5.44 10.75 7.05 9.92-3.58
   V0.01h5.51z"/>
<rect id="r1" x="0" y="0" width="100%" height="100%" />
<g id="white">
    <use id="bg-black" xlink:href="#tt" x="0" y="0" width="48.59" height="33.63" fill="black" />
    <use id="tik-tok-white" xlink:href="#tt" x="0" y="0" width="48.59" height="33.63" fill="white" />
</g>
</defs>
<g id="base">
<use id="tik-tok-background" xlink:href="#text-bg"/>
<g id="mg4" fill="black" transform="translate(0 0)" filter="url(#tik-tok-filter)">
  <use id="tik-tok-eight-note" xlink:href="#white" x="0.2em" y="0.2em" transform="scale(6)"/>
  <use xlink:href="#textInput" id="m2-text" x="1.75em" y="1.2em" font-size="8em" fill="#FFFFFF" style="font-family:'Saira Stencil One'"/>
</g>
</g>
</svg>
