<?xml version="1.0" encoding="utf-8"?>
<!-- Generator: Adobe Illustrator 12.0.1, SVG Export Plug-In . SVG Version: 6.00 Build 51448)  -->
<!DOCTYPE svg PUBLIC "-//W3C//DTD SVG 1.1//EN" "http://www.w3.org/Graphics/SVG/1.1/DTD/svg11.dtd" [
	<!ENTITY ns_svg "http://www.w3.org/2000/svg">
	<!ENTITY ns_xlink "http://www.w3.org/1999/xlink">
]>
<svg  version="1.1" id="Ebene_1" xmlns="&ns_svg;" xmlns:xlink="&ns_xlink;" width="123.598" height="123.118"
	 viewBox="0 0 123.598 123.118" overflow="visible" enable-background="new 0 0 123.598 123.118" xml:space="preserve">
<g>
	<g>
		<g id="XMLID_1_">
			<g>
				<polygon fill="#FF4000" points="52.388,54.62 52.388,70.088 5.132,70.088 5.132,22.988 20.804,22.988 20.804,7.412 
					67.857,7.412 67.857,54.62 				"/>
			</g>
			<g>
				<polyline fill="none" stroke="#000000" points="20.156,7.412 20.804,7.412 67.857,7.412 68.361,7.412 				"/>
				<polyline fill="none" stroke="#000000" points="67.857,6.716 67.857,7.412 67.857,54.62 67.857,55.112 				"/>
				<polyline fill="none" stroke="#000000" points="68.456,54.62 67.857,54.62 52.388,54.62 51.656,54.62 				"/>
				<polyline fill="none" stroke="#000000" points="52.388,53.888 52.388,54.62 52.388,70.088 52.388,70.688 				"/>
				<polyline fill="none" stroke="#000000" points="52.916,70.088 52.388,70.088 5.132,70.088 4.604,70.088 				"/>
				<polyline fill="none" stroke="#000000" points="5.132,70.688 5.132,70.088 5.132,22.988 5.132,22.388 				"/>
				<polyline fill="none" stroke="#000000" points="4.532,22.988 5.132,22.988 20.804,22.988 21.332,22.988 				"/>
				<polyline fill="none" stroke="#000000" points="20.804,23.588 20.804,22.988 20.804,7.412 20.804,6.872 				"/>
			</g>
		</g>
	</g>
	<line fill="none" stroke="#1FFF92" stroke-width="2" x1="21.26" y1="7.916" x2="51.965" y2="69.934"/>
	<line fill="none" stroke="#1FFF92" stroke-width="2" x1="5.509" y1="23.366" x2="67.494" y2="54.434"/>
	<g>
		<g id="XMLID_3_">
			<g>
			</g>
			<g>
				<polyline fill="none" stroke="#000000" points="20.156,7.562 20.804,7.562 67.857,7.562 68.361,7.562 				"/>
				<polyline fill="none" stroke="#000000" points="67.857,6.866 67.857,7.562 67.857,54.77 67.857,55.262 				"/>
				<polyline fill="none" stroke="#000000" points="68.456,54.77 67.857,54.77 52.388,54.77 51.656,54.77 				"/>
				<polyline fill="none" stroke="#000000" points="52.388,54.038 52.388,54.77 52.388,70.238 52.388,70.838 				"/>
				<polyline fill="none" stroke="#000000" points="52.916,70.238 52.388,70.238 5.132,70.238 4.604,70.238 				"/>
				<polyline fill="none" stroke="#000000" points="5.132,70.838 5.132,70.238 5.132,23.138 5.132,22.538 				"/>
				<polyline fill="none" stroke="#000000" points="4.532,23.138 5.132,23.138 20.804,23.138 21.332,23.138 				"/>
				<polyline fill="none" stroke="#000000" points="20.804,23.738 20.804,23.138 20.804,7.562 20.804,7.022 				"/>
			</g>
		</g>
	</g>
</g>
<g>
	<g>
		<g id="XMLID_2_">
			<g>
				<polygon fill="#000CFF" points="80.475,73.685 80.475,58.085 64.515,58.085 64.515,120.738 111.674,120.738 111.674,73.685 				
					"/>
			</g>
			<g>
				<polyline fill="none" stroke="#000000" points="81.074,58.085 80.475,58.085 64.515,58.085 64.046,58.085 				"/>
				<polyline fill="none" stroke="#000000" points="80.475,57.485 80.475,58.085 80.475,73.685 80.475,74.213 				"/>
				<polyline fill="none" stroke="#000000" points="79.947,73.685 80.475,73.685 111.674,73.685 112.275,73.685 				"/>
				<polyline fill="none" stroke="#000000" points="111.674,73.085 111.674,73.685 111.674,120.738 111.674,121.313 				"/>
				<polyline fill="none" stroke="#000000" points="112.323,120.738 111.674,120.738 64.515,120.738 63.962,120.738 				"/>
				<polyline fill="none" stroke="#000000" points="64.515,121.242 64.515,120.738 64.515,58.085 64.515,57.641 				"/>
			</g>
		</g>
	</g>
	<line fill="none" stroke="#1FFF92" stroke-width="2" x1="80.816" y1="73.241" x2="65.215" y2="120.191"/>
	<line fill="none" stroke="#1FFF92" stroke-width="2" x1="80.816" y1="63.824" x2="64.915" y2="58.542"/>
	<g>
		<g id="XMLID_4_">
			<g>
			</g>
			<g>
				<polyline fill="none" stroke="#000000" points="81.223,58.085 80.623,58.085 64.663,58.085 64.196,58.085 				"/>
				<polyline fill="none" stroke="#000000" points="80.623,57.485 80.623,58.085 80.623,73.685 80.623,74.213 				"/>
				<polyline fill="none" stroke="#000000" points="80.095,73.685 80.623,73.685 111.823,73.685 112.423,73.685 				"/>
				<polyline fill="none" stroke="#000000" points="111.823,73.085 111.823,73.685 111.823,120.738 111.823,121.313 				"/>
				<polyline fill="none" stroke="#000000" points="112.471,120.738 111.823,120.738 64.663,120.738 64.112,120.738 				"/>
				<polyline fill="none" stroke="#000000" points="64.663,121.242 64.663,120.738 64.663,58.085 64.663,57.641 				"/>
			</g>
		</g>
	</g>
</g>
</svg>
