<?xml version="1.0" encoding="UTF-8" standalone="no"?>
<svg 
    id="svg" 
    xmlns:svg="http://www.w3.org/2000/svg"
    xmlns="http://www.w3.org/2000/svg"
    xmlns:xlink="http://www.w3.org/1999/xlink"
    xml:base="https://home.semitasker.com/"
    externalResourcesRequired="true"
    x="-128" 
    y="-128" 
    height="704" 
    width="704" 
    viewBox="-128 -128 768 768"
    >
<defs>
<style>
#svg {
    border:1px dashed tan;
}
#svg text {
    font-size: 150px;
    fill: black;
    font-family: 'Lucida Sans', 'Lucida Sans Regular', 'Lucida Grande', 'Lucida Sans Unicode', Geneva, Verdana, sans-serif;
    font-weight: bold;
}
#gr1 rect {
    stroke: purple;
    stroke-width: 2;
    fill: transparent;
}
.r0 {
    fill: rgba(0,0,0,.1);
}
#r2 {
    fill: rgba(0,0,0,.8);
    stroke: rgb(220, 223, 44);
    stroke-width: 0.05px;
}

#r3 {
    fill: white;
    stroke: rgb(21, 247, 198);
    stroke-width: 0.05px;
}

#r4 {
    fill: rgba(0,0,0,1);
}
#c0 {
    stroke: black;
    fill: transparent;
    stroke-width: .125px;
}
#c0 {
    stroke: black;
    fill: rgba(0,0,255,.1);
    stroke-width: .125px;
}
</style>
<circle id="c1" class="primitive" x="0" y="0" cx="300" cy="300" r="300" fill="#000"></circle>
<g id="gr0" class="primitive" transform="scale(80)">
    <circle id="c0" cx="8" cy="8" r="7.75" class="c0"></circle>
</g>
<g id="gr00" class="primitive" transform="scale(80)">
    <circle id="c00" cx="8" cy="8" r="7.75" class="c00"></circle>
</g>
<g id="gr1" class="primitive">
 <rect id="r1" x="2" y="2" height="600" width="300"></rect>
 <text id="t1" x="10" y="140">L</text>
</g>

<g id="gr2" class="primitive" transform="scale(80)" x="0" y="0">
    <rect id="r1" class="r0" height="8" width="8"></rect>
    <path id="p1" class="p0" d="M 1 1 h 3 v 1 h -2 v 5 h -1 v -6"></path>
</g>
<g id="gr3" class="primitive" transform="scale(40)" x="0" y="0">
    <rect id="r1" class="r0" height="16" width="16"></rect>
    <path id="p1" class="p0" d="M 2 2 h 6 v 2 h -4 v 10 h -2 v -12"></path>
</g>
<g id="sc1" class="primitive" transform="scale(40)" x="0" y="0">
    <rect id="r2" x="0" y="0" height="16" width="16"></rect>
</g>

<g id="sc2" class="primitive" transform="scale(40)" x="0" y="0">
    <rect id="r3" x="0" y="0" height="16" width="16"></rect>
    <rect id="r4" x="5.333" y="5.333" height="5.333" width="5.333"></rect>
</g>

<g id="sc3" class="primitive" transform="scale(40)" x="0" y="0">
    <rect id="r3" x="0" y="0" height="16" width="16"></rect>
    <rect id="r4" x="5.333" y="5.333" height="5.333" width="5.333"></rect>
</g>

<g id="prim-button">
    <use id="prim-use" href="#gr0" x="0" y="0" transform="scale(0.1)"/>

</g>
<g id="g0">
<use href="#gr0" transform="matrix(0.3333333333333333 0 0 0.3333333333333333 0 0)"/>
<use href="#gr0" transform="matrix(0.3333333333333333 0 0 0.3333333333333333 213.33333333333331 0)"/>
<use href="#gr0" transform="matrix(0.3333333333333333 0 0 0.3333333333333333 426.66666666666663 0)"/>
<use href="#gr0" transform="matrix(0.3333333333333333 0 0 0.3333333333333333 0 213.33333333333331)"/>
<use href="#gr0" transform="matrix(0.3333333333333333 0 0 0.3333333333333333 426.66666666666663 213.33333333333331)"/>
<use href="#gr0" transform="matrix(0.3333333333333333 0 0 0.3333333333333333 0 426.66666666666663)"/>
<use href="#gr0" transform="matrix(0.3333333333333333 0 0 0.3333333333333333 213.33333333333331 426.66666666666663)"/>
<use href="#gr0" transform="matrix(0.3333333333333333 0 0 0.3333333333333333 426.66666666666663 426.66666666666663)"/>
</g><g id="g1">
<use href="#g0" transform="matrix(0.3333333333333333 0 0 0.3333333333333333 0 0)"/>
<use href="#g0" transform="matrix(0.3333333333333333 0 0 0.3333333333333333 213.33333333333331 0)"/>
<use href="#g0" transform="matrix(0.3333333333333333 0 0 0.3333333333333333 426.66666666666663 0)"/>
<use href="#g0" transform="matrix(0.3333333333333333 0 0 0.3333333333333333 0 213.33333333333331)"/>
<use href="#g0" transform="matrix(0.3333333333333333 0 0 0.3333333333333333 426.66666666666663 213.33333333333331)"/>
<use href="#g0" transform="matrix(0.3333333333333333 0 0 0.3333333333333333 0 426.66666666666663)"/>
<use href="#g0" transform="matrix(0.3333333333333333 0 0 0.3333333333333333 213.33333333333331 426.66666666666663)"/>
<use href="#g0" transform="matrix(0.3333333333333333 0 0 0.3333333333333333 426.66666666666663 426.66666666666663)"/>
</g><g id="g2">
<use href="#g1" transform="matrix(0.3333333333333333 0 0 0.3333333333333333 0 0)"/>
<use href="#g1" transform="matrix(0.3333333333333333 0 0 0.3333333333333333 213.33333333333331 0)"/>
<use href="#g1" transform="matrix(0.3333333333333333 0 0 0.3333333333333333 426.66666666666663 0)"/>
<use href="#g1" transform="matrix(0.3333333333333333 0 0 0.3333333333333333 0 213.33333333333331)"/>
<use href="#g1" transform="matrix(0.3333333333333333 0 0 0.3333333333333333 426.66666666666663 213.33333333333331)"/>
<use href="#g1" transform="matrix(0.3333333333333333 0 0 0.3333333333333333 0 426.66666666666663)"/>
<use href="#g1" transform="matrix(0.3333333333333333 0 0 0.3333333333333333 213.33333333333331 426.66666666666663)"/>
<use href="#g1" transform="matrix(0.3333333333333333 0 0 0.3333333333333333 426.66666666666663 426.66666666666663)"/>
</g><g id="g3">
<use href="#g2" transform="matrix(0.3333333333333333 0 0 0.3333333333333333 0 0)"/>
<use href="#g2" transform="matrix(0.3333333333333333 0 0 0.3333333333333333 213.33333333333331 0)"/>
<use href="#g2" transform="matrix(0.3333333333333333 0 0 0.3333333333333333 426.66666666666663 0)"/>
<use href="#g2" transform="matrix(0.3333333333333333 0 0 0.3333333333333333 0 213.33333333333331)"/>
<use href="#g2" transform="matrix(0.3333333333333333 0 0 0.3333333333333333 426.66666666666663 213.33333333333331)"/>
<use href="#g2" transform="matrix(0.3333333333333333 0 0 0.3333333333333333 0 426.66666666666663)"/>
<use href="#g2" transform="matrix(0.3333333333333333 0 0 0.3333333333333333 213.33333333333331 426.66666666666663)"/>
<use href="#g2" transform="matrix(0.3333333333333333 0 0 0.3333333333333333 426.66666666666663 426.66666666666663)"/>
</g><g id="g4">
<use href="#g3" transform="matrix(0.3333333333333333 0 0 0.3333333333333333 0 0)"/>
<use href="#g3" transform="matrix(0.3333333333333333 0 0 0.3333333333333333 213.33333333333331 0)"/>
<use href="#g3" transform="matrix(0.3333333333333333 0 0 0.3333333333333333 426.66666666666663 0)"/>
<use href="#g3" transform="matrix(0.3333333333333333 0 0 0.3333333333333333 0 213.33333333333331)"/>
<use href="#g3" transform="matrix(0.3333333333333333 0 0 0.3333333333333333 426.66666666666663 213.33333333333331)"/>
<use href="#g3" transform="matrix(0.3333333333333333 0 0 0.3333333333333333 0 426.66666666666663)"/>
<use href="#g3" transform="matrix(0.3333333333333333 0 0 0.3333333333333333 213.33333333333331 426.66666666666663)"/>
<use href="#g3" transform="matrix(0.3333333333333333 0 0 0.3333333333333333 426.66666666666663 426.66666666666663)"/>
</g></defs>

<g id="euclidian-transform-xy-plane">
    <line y1="0" x1="-100%" x2="100%" y2="0" stroke="black" stroke-width="1"></line>
    <line x1="0" y1="-100%" y2="100%" x2="0" stroke="black" stroke-width="1"></line>
</g>
<!--
<g id="test">
<use href="#gr3" transform="scale(.25)" />
</g>
-->
<use id="show" href="#g4" transform="scale(1.00)"/>


<g id="composition-table">

</g>
</svg>